<svg xmlns="http://www.w3.org/2000/svg" viewBox="0 0 226.65 51.95"><defs><style>.cls-1{fill:#fafcfd;}</style></defs><g id="Layer_2" data-name="Layer 2"><g id="Layer_1-2" data-name="Layer 1"><path class="cls-1" d="M171.6,21.92a11.61,11.61,0,0,1-6.72-2c-.55-.36-.71-.72-.28-1.26a1.91,1.91,0,0,0,.3-.54c.21-.51.36-.61.9-.21a9.26,9.26,0,0,0,7.84,1.72,2.55,2.55,0,0,0,.5-4.91,25,25,0,0,0-4.21-1.31,15.55,15.55,0,0,1-2.41-.82,4.35,4.35,0,0,1-2-6.35,5.51,5.51,0,0,1,4.05-2.67,9.22,9.22,0,0,1,7.31,1.47c.42.29.59.51.25,1s-.38.91-.72,1.08-.64-.37-1-.56a7.64,7.64,0,0,0-6.29-.75,2.51,2.51,0,0,0-1.85,2.51A2.4,2.4,0,0,0,169,10.78a34.6,34.6,0,0,0,3.9,1.08,13.31,13.31,0,0,1,3,1.06,4.08,4.08,0,0,1,2.36,3.83A4.48,4.48,0,0,1,176,21,8.21,8.21,0,0,1,171.6,21.92Z"/><path class="cls-1" d="M172.24,51.82a10.36,10.36,0,0,1-6-1.79c-.49-.33-.64-.64-.25-1.14a2,2,0,0,0,.27-.48c.19-.46.32-.55.81-.19a8.36,8.36,0,0,0,7.05,1.55,2.29,2.29,0,0,0,.44-4.41,21.52,21.52,0,0,0-3.78-1.18,13,13,0,0,1-2.17-.75,3.9,3.9,0,0,1-1.81-5.7,4.94,4.94,0,0,1,3.64-2.4A8.27,8.27,0,0,1,177,36.66c.38.26.53.45.23.86s-.35.81-.65,1-.58-.33-.89-.5a6.87,6.87,0,0,0-5.66-.67,2.26,2.26,0,0,0-1.66,2.25,2.15,2.15,0,0,0,1.54,2.24,29,29,0,0,0,3.51,1,12.65,12.65,0,0,1,2.69.95,3.73,3.73,0,0,1,2.13,3.45A4,4,0,0,1,176.16,51,7.27,7.27,0,0,1,172.24,51.82Z"/><path class="cls-1" d="M67.47,16.72a11.5,11.5,0,0,0,8.9,2.67,4.22,4.22,0,0,0,2.72-1.16,3,3,0,0,0-.87-4.61,20.24,20.24,0,0,0-4.74-1.55,23.37,23.37,0,0,1-3.17-1,5.31,5.31,0,0,1-1.87-8.74C70.5.16,73.18-.14,76,.05A10.74,10.74,0,0,1,81.16,2c.59.4.6.72.24,1.23s-.47,1.07-.86,1.24-.76-.47-1.17-.7a9.51,9.51,0,0,0-6.74-1.08A3.11,3.11,0,0,0,69.85,5.6c-.12,1.67.53,2.66,2.3,3.25,1.38.45,2.81.77,4.22,1.13A16.51,16.51,0,0,1,80,11.27a4.94,4.94,0,0,1,2.77,5,5.19,5.19,0,0,1-3.7,5,13.49,13.49,0,0,1-12.3-1.81c-.52-.36-.69-.68-.27-1.24a12.74,12.74,0,0,0,.79-1.34C67.33,16.82,67.4,16.79,67.47,16.72Z"/><path class="cls-1" d="M128.26,16.72A11.53,11.53,0,0,0,137,19.43c2.21-.21,3.47-1.17,3.67-2.75s-.62-2.85-2.8-3.59c-2-.67-4-1.11-6-1.79-3-1-4.22-2.66-4.08-5.06a5.94,5.94,0,0,1,4.65-5.8A11.21,11.21,0,0,1,141.93,2c.61.41.64.69.26,1.29-.76,1.21-.72,1.23-1.88.57a9,9,0,0,0-7.51-.94,3,3,0,0,0-2.17,2.86,2.8,2.8,0,0,0,2,3A37.68,37.68,0,0,0,137.3,10a13.52,13.52,0,0,1,4.06,1.59,5.46,5.46,0,0,1-.49,9.16c-3.22,1.72-6.58,1.41-9.92.38a13.38,13.38,0,0,1-3.24-1.65c-.59-.38-.72-.75-.32-1.34S128,17.23,128.26,16.72Z"/><path class="cls-1" d="M57.38,17.71V10.13c0-1.94,0-3.89,0-5.83,0-.61.14-.8.77-.79,1.52,0,1.52,0,1.52,1.51,0,5.21,0,10.42,0,15.64,0,.35.3,1-.23,1.05s-1.44.38-2-.38C56,19.52,54.52,17.75,53.09,16L44.82,5.62c-.2-.25-.49-.51-.53-.79s-.3-1.14.16-1.24,1.33-.39,1.87.3c1.52,1.94,3.07,3.87,4.61,5.8l6,7.51C57,17.31,57.11,17.41,57.38,17.71Z"/><path class="cls-1" d="M118.44,17.53a1.9,1.9,0,0,0,.15-1.08c0-4,0-8,0-12,0-.7.12-1,.9-1,1.46.07,1.46,0,1.46,1.44q0,7.82,0,15.64c0,.39.25.91-.24,1.19a2.31,2.31,0,0,1-2.1-.44l-5.19-6.47L106,5.61l-.21-.28c-.39-.52-.52-1.58-.22-1.78a2.42,2.42,0,0,1,2.08.45q4.83,6.08,9.67,12.16Z"/><path class="cls-1" d="M29.85,21.9a8.72,8.72,0,0,1-8.44-7.53c-.1-.58.05-.84.65-.74a2.44,2.44,0,0,0,.27,0c1.57,0,1.16-.23,1.58,1.24a6.33,6.33,0,0,0,4.4,4.74c3.41,1,6.82-1.37,7.6-5.12.06-.31,0-.78.36-.82a10.5,10.5,0,0,1,2,0c.16,0,.08.24.06.38C37.71,18.29,34.24,22,29.85,21.9Z"/><path class="cls-1" d="M37,11.36c-.86.28-1.06-.3-1.28-1.12a6,6,0,0,0-9.29-3.63A6.15,6.15,0,0,0,24,10.26c-.23.93-.6,1.19-1.51,1.12-1.18-.08-1.19,0-.9-1.16a8.73,8.73,0,0,1,9.75-6.71,9.18,9.18,0,0,1,7,7.34c.05.4,0,.55-.4.51C37.63,11.34,37.39,11.36,37,11.36Z"/><path class="cls-1" d="M86.6,51.87A7.85,7.85,0,0,1,79,45.09c-.09-.52,0-.75.59-.66a1,1,0,0,0,.24,0c1.41,0,1-.2,1.42,1.12a5.65,5.65,0,0,0,4,4.26c3.07.88,6.13-1.22,6.83-4.6.06-.27,0-.7.33-.74a10,10,0,0,1,1.81,0c.15,0,.08.22.06.34C93.67,48.62,90.55,51.91,86.6,51.87Z"/><path class="cls-1" d="M93.05,42.39c-.77.25-1-.27-1.14-1a5.38,5.38,0,0,0-8.36-3.26,5.51,5.51,0,0,0-2.23,3.28c-.21.83-.54,1.07-1.36,1-1.06-.08-1.06,0-.81-1a7.85,7.85,0,0,1,8.77-6,8.27,8.27,0,0,1,6.25,6.6c0,.36,0,.49-.36.46C93.6,42.37,93.39,42.39,93.05,42.39Z"/><path class="cls-1" d="M116.16,51.87a7.85,7.85,0,0,1-7.59-6.78c-.09-.52,0-.75.59-.66a1,1,0,0,0,.24,0c1.41,0,1-.2,1.42,1.12a5.67,5.67,0,0,0,4,4.26c3.07.88,6.14-1.22,6.84-4.6,0-.27,0-.7.32-.74a10,10,0,0,1,1.81,0c.15,0,.08.22.06.34C123.23,48.62,120.1,51.91,116.16,51.87Z"/><path class="cls-1" d="M122.6,42.39c-.77.25-.95-.27-1.14-1a5.37,5.37,0,0,0-8.36-3.26,5.51,5.51,0,0,0-2.23,3.28c-.21.83-.54,1.07-1.36,1-1.06-.08-1.06,0-.81-1a7.86,7.86,0,0,1,8.77-6,8.26,8.26,0,0,1,6.25,6.6c0,.36,0,.49-.36.46C123.15,42.37,122.94,42.39,122.6,42.39Z"/><path class="cls-1" d="M100.42,3.5C99.51,5,98.69,6.41,97.86,7.79q-2,3.36-4,6.72a2.24,2.24,0,0,0-.34,1.26c0,1.73,0,3.47,0,5.21,0,.67-.2.85-.85.84-1.53,0-1.53,0-1.53-1.56a23.6,23.6,0,0,0,0-2.38,7.81,7.81,0,0,1,1.37-5.23c1.7-2.69,3.27-5.45,4.83-8.22A1.47,1.47,0,0,1,99,3.49,11.65,11.65,0,0,0,100.42,3.5Z"/><path class="cls-1" d="M161.26,3.52l-4.13,6.94a.18.18,0,0,0,0,.07c-.9,1.51-2.14,2.93-2.6,4.57s-.13,3.45-.13,5.18c0,1.47-.47,1.81-1.95,1.48-.32-.08-.34-.26-.34-.51,0-2,0-3.94,0-5.91a1.46,1.46,0,0,1,.26-.73c2-3.51,4.09-7,6.11-10.52a.93.93,0,0,1,1-.58C160,3.55,160.52,3.52,161.26,3.52Z"/><path class="cls-1" d="M38.81,51.88a8,8,0,0,1-7.68-5.47c0-.1-.07-.2-.1-.3-.55-1.67-.55-1.65,1.16-1.63.51,0,.6.23.7.63A6,6,0,0,0,37,49.81a5.06,5.06,0,0,0,5.8-2.18c.29-.47.51-.37.88-.19,1.3.67,1.34.75.39,1.86A7.29,7.29,0,0,1,38.81,51.88Z"/><path class="cls-1" d="M44.47,38.68c0,.17-.09.23-.2.3a4.93,4.93,0,0,0-.54.34c-.55.49-.85.46-1.34-.23A5.2,5.2,0,0,0,34,39.3a6.53,6.53,0,0,0-1.13,2.59c-.08.46-.26.64-.77.63-1.57,0-1.57,0-1.15-1.54a7.64,7.64,0,0,1,11-4.86,5.49,5.49,0,0,1,2.3,2.23Z"/><path class="cls-1" d="M140.42,38.8c0,.18-.09.24-.21.31a3.67,3.67,0,0,0-.53.34c-.56.48-.85.45-1.34-.24a5.2,5.2,0,0,0-8.36.21A6.45,6.45,0,0,0,128.85,42c-.08.46-.26.64-.78.64-1.56,0-1.56,0-1.14-1.55a7.63,7.63,0,0,1,11-4.86,5.55,5.55,0,0,1,2.3,2.23Z"/><path class="cls-1" d="M10.65,22.3A10.47,10.47,0,0,1,.56,15.11c-.05-.13-.09-.26-.13-.39C-.29,12.53-.29,12.56,2,12.57c.66,0,.78.32.91.84.73,3,2.39,5.24,5.41,6.18a6.66,6.66,0,0,0,7.62-2.88c.38-.6.67-.48,1.15-.24,1.71.88,1.76,1,.52,2.44A9.57,9.57,0,0,1,10.65,22.3Z"/><path class="cls-1" d="M18.08,5c0,.23-.12.31-.27.4a5.58,5.58,0,0,0-.7.45c-.73.64-1.12.59-1.77-.31-2.61-3.65-8.41-3.45-11,.28a8.43,8.43,0,0,0-1.49,3.4c-.1.6-.34.84-1,.83C-.19,10-.19,10,.36,8A10,10,0,0,1,14.81,1.6a7.26,7.26,0,0,1,3,2.92C17.91,4.68,18,4.82,18.08,5Z"/><path class="cls-1" d="M105.6,8.71l2,2.61a1.15,1.15,0,0,1,.14.77c0,3,0,5.94,0,8.91,0,.69-.23.83-.86.81-1.5,0-1.5,0-1.5-1.46V8.8Z"/><path class="cls-1" d="M44.24,8.57a11.14,11.14,0,0,0,1,1.22,4.85,4.85,0,0,1,1.34,4c-.12,2.38-.05,4.76,0,7.14,0,.62-.08.88-.79.85-1.51-.05-1.51,0-1.51-1.53V8.57Z"/><path class="cls-1" d="M74.2,48.12V41.3c0-1.74,0-3.49,0-5.24,0-.55.12-.72.69-.71,1.37,0,1.37,0,1.37,1.36,0,4.68,0,9.37,0,14.06,0,.32.26.9-.21.94s-1.3.34-1.82-.34c-1.27-1.62-2.58-3.22-3.87-4.83l-7.42-9.29c-.18-.23-.45-.46-.49-.71s-.26-1,.15-1.12,1.2-.34,1.68.27c1.37,1.75,2.76,3.48,4.15,5.22l5.39,6.75C73.87,47.76,74,47.85,74.2,48.12Z"/><path class="cls-1" d="M62.39,39.9a13.94,13.94,0,0,0,.88,1.1,4.34,4.34,0,0,1,1.21,3.58c-.11,2.14,0,4.28,0,6.43,0,.55-.07.78-.71.76-1.36-.05-1.36,0-1.36-1.38V39.9Z"/><path class="cls-1" d="M145.13,3.52c.81,0,1.47,0,2.14,0,.37,0,.51.22.66.47,1.25,2.17,2.48,4.34,3.74,6.49a.87.87,0,0,1,0,1c-.29.43-.55.89-.9,1.45Z"/><path class="cls-1" d="M89.9,13C88,9.83,86.16,6.74,84.22,3.5h2.26c.33,0,.44.24.57.47,1.25,2.16,2.5,4.33,3.76,6.49a.83.83,0,0,1,0,1C90.5,11.93,90.25,12.43,89.9,13Z"/><path class="cls-1" d="M190.47,28.21a9.68,9.68,0,0,1,19.36-.33,9.68,9.68,0,0,1-19.36.33Z"/><path class="cls-1" d="M215.28,14.86a6.6,6.6,0,1,1,0,9.26A6.51,6.51,0,0,1,215.28,14.86Z"/><path class="cls-1" d="M196.71,42.39a3.21,3.21,0,1,1,0,4.51A3.21,3.21,0,0,1,196.71,42.39Z"/><rect class="cls-1" x="206.14" y="21.9" width="12.5" height="0.94" transform="translate(1.72 57.41) rotate(-15.46)"/><rect class="cls-1" x="195.08" y="39.91" width="8.5" height="0.94" transform="translate(145.04 236.37) rotate(-85.97)"/><rect class="cls-1" x="17.29" y="35.45" width="10.1" height="2.11" rx="0.27"/><rect class="cls-1" x="17.29" y="42.35" width="10.1" height="2.11" rx="0.27"/><rect class="cls-1" x="17.29" y="49.77" width="10.1" height="2.11" rx="0.27"/><rect class="cls-1" x="152.52" y="35.53" width="10.1" height="2.11" rx="0.27"/><rect class="cls-1" x="152.52" y="42.43" width="10.1" height="2.11" rx="0.27"/><rect class="cls-1" x="152.52" y="49.84" width="10.1" height="2.11" rx="0.27"/><path class="cls-1" d="M13.75,35.33H.77a.42.42,0,0,0-.42.42V37a.42.42,0,0,0,.42.42H5.94a.42.42,0,0,1,.42.42V51.77H8.23V37.83a.42.42,0,0,1,.42-.42h5.1a.42.42,0,0,0,.42-.42V35.75A.42.42,0,0,0,13.75,35.33Z"/><rect class="cls-1" x="46.91" y="35.28" width="2.41" height="16.54" rx="0.28"/><rect class="cls-1" x="145.59" y="35.35" width="2.41" height="16.54" rx="0.08"/><rect class="cls-1" x="55.97" y="35.28" width="2.41" height="16.54" rx="0.28"/><rect class="cls-1" x="52.18" y="40.08" width="2.41" height="6.94" rx="0.28" transform="translate(96.94 -9.84) rotate(90)"/><path class="cls-1" d="M100.33,48.5a.52.52,0,0,1-.16.37l-2.25,2.21V35.8a.52.52,0,0,1,.52-.52H99.8a.52.52,0,0,1,.53.52Z"/><path class="cls-1" d="M97.92,51.81l2.25-2.26a.58.58,0,0,1,.37-.15h6.18a.53.53,0,0,1,.52.52v1.37a.52.52,0,0,1-.52.52Z"/><path class="cls-1" d="M141.66,42.77h-6.3a.28.28,0,0,0-.28.28l2,1.6a.31.31,0,0,0,.24.1H140c-.5,3.64-3.71,6-6.91,5.06a5.65,5.65,0,0,1-4-4.26c-.38-1.32,0-1.09-1.42-1.12h-.24c-.55-.09-.68.14-.59.66a7.85,7.85,0,0,0,7.58,6.78c3.95,0,7.07-3.25,7.65-7a.19.19,0,0,0,0-.08l0-1.46A.52.52,0,0,0,141.66,42.77Z"/><rect class="cls-1" x="0.35" y="26.96" width="194.49" height="2.15"/></g></g></svg>